<svg xmlns="http://www.w3.org/2000/svg" y="0px" x="0px" data-name="Logo/Estadão" viewBox="0 0 220 47.127">
    <defs>
        <style>
            .cls-2{fill:#2d74e7}
        </style>
    </defs>
	<title>Logo Estadão</title>
    <g id="Grupo_117" data-name="Grupo 117">
        <path id="Caminho_66" fill="#2575e8" d="M579.024 40.552a16.505 16.505 0 0 1-.3 1.93c-.152.632-1.589 4.185-1.694 4.772a14.12 14.12 0 0 0-.089 1.721c-.436.191-1.439.939-1.971.939s-1.8-1.214-2.353-1.359c0-1.5.386-1.624.252-2.4a12.837 12.837 0 0 0-.936-2.6 2.159 2.159 0 0 1-.113-1.211 1.467 1.467 0 0 0-.235 1.1c.138.829.8 2.077.894 2.624s.066 1.175-.141 1.314a10.882 10.882 0 0 1-4.239-1.378 30.452 30.452 0 0 0-3.108-1.553 17.845 17.845 0 0 1 2.375-3.725 11.228 11.228 0 0 1 2.759-2.4 8.761 8.761 0 0 1 4.629-.91 17.724 17.724 0 0 1 2.885.57s.924-.767 1.632-.526c-.2.533-.431 1.079-.431 1.079l.917.534a13.2 13.2 0 0 0-.732 1.476M537.8 54.235a4.961 4.961 0 0 0 1.147 3.106c.008.005.016.017.025.024a20.077 20.077 0 0 1-.558-2.255V53.6a12.728 12.728 0 0 1 .945-3.072c-.008.006-.008.013-.013.013s-.035.03-.048.042a5.028 5.028 0 0 0-.96 1.3l-.054.11a4.845 4.845 0 0 0-.47 1.793c-.009.122-.018.242-.018.364 0 .025.008.053.008.083m25.085-8.022a.512.512 0 0 0 .189-.187 5.652 5.652 0 0 0 .355-.628c0-.4-.837-.357-1.014-.5s-.258-.35-.536-.472l-.013.042c-.008.073-.008.172-.008.267a4.328 4.328 0 0 1 .072.782 3.7 3.7 0 0 1-.119 1 3.969 3.969 0 0 1 .454.2 2.275 2.275 0 0 1 .619-.509m-.1-3.047l-3.256-3.656-2.111 1.762.081.257a4.617 4.617 0 0 0 .252.528 5.011 5.011 0 0 0 .354.528 5.205 5.205 0 0 0 .474.537c.025.025.054.046.075.07a4.791 4.791 0 0 0 1.6.995 3.418 3.418 0 0 0 1.084.209l1.452-1.231zm-1.583-6.049v-.963a.393.393 0 0 0-.1-.31 1.6 1.6 0 0 1-.344-.23c-.037-.028-.072-.064-.1-.091a1.057 1.057 0 0 1-.667-.075 1.014 1.014 0 0 1-.323-.178.557.557 0 0 1-.191-.393c-.108 0-.213-.013-.314-.025v.626c.008.025.011.055.018.077a1.4 1.4 0 0 1-.22 1.219 1.526 1.526 0 0 1-1.22.641 2.177 2.177 0 0 0 .008.55c.023.166.2.62.267.866a4.706 4.706 0 0 1 .262 1.368l.481-.405c-.1-.386-.218-.788-.327-1.185-.075-.273-.152-.54-.218-.8a1.975 1.975 0 0 0 1.3-.907 5.7 5.7 0 0 0 .837.22h.846zm1.214-1.238c.131-.13.1-.448-.146-.986a2.436 2.436 0 0 0-.3-.322c-.192.1-.271.1-.337.135a2.154 2.154 0 0 1-.17.245c-.044.051-.157.032-.2.068a.877.877 0 0 1-.321.4 2.036 2.036 0 0 0 .638.4c.16.063.7.184.834.063m.626-2.2a4.527 4.527 0 0 0 1.435-1.308 1.874 1.874 0 0 1-.3-.135 3.086 3.086 0 0 1-.977-.926 5.46 5.46 0 0 1-1.574 2.116 1.208 1.208 0 0 1 .08.207.408.408 0 0 1 .016.066 1.532 1.532 0 0 1 .008.55 5.437 5.437 0 0 0 1.318-.57m1.622-1.618s.01 0 .012-.006a.075.075 0 0 0 .024-.064 1.407 1.407 0 0 0-.5-.773 2.927 2.927 0 0 0-.446-.359c-.174-.107-.311-.151-.39-.123a.122.122 0 0 0-.025.015.115.115 0 0 0-.016.037.181.181 0 0 0 .008.128 1.853 1.853 0 0 0 .483.681c.357.344.732.553.851.463m-3.409 1.418c0-.008-.823.065-.823.065s-.4.283-.453.528a3.835 3.835 0 0 0 0 .509l1.286.025a1.08 1.08 0 0 0-.01-1.126m-.911 1.759c.674.049.638-.341.638-.341l-1.165-.018s-.148.319.527.359m-1.691-1.378a1.265 1.265 0 0 0-.365-.276c-.144.132-.338.316-.522.456-.008.007-.008.013-.018.013a.949.949 0 0 1-.216.148 1.039 1.039 0 0 1-.273-.467.462.462 0 0 1-.023-.126.3.3 0 0 1 .17-.3 3.208 3.208 0 0 0 .4-.184.531.531 0 0 1 .129-.264 1.963 1.963 0 0 0-.226-.4l-.35-.207a3.28 3.28 0 0 1-.39-.238c0 .221.02.356.018.518v.056c0 .091.008.187.013.279 0 .173.008.344.008.516h-.3a1.25 1.25 0 0 0-.008-.172c0-.1 0-.184-.008-.282s-.013-.2-.015-.294c-.021-.387-.054-.758-.087-1.111a.608.608 0 0 0-.126-.028c-.075-.013-.152-.021-.227-.034h-.04c-.06 0-.116.006-.173.006-.016.043.116.814.147.951.015.074.141.884.144.93v.034h-.284l-.008.013c-.06-.356-.126-.7-.207-1.031-.074-.307-.16-.6-.248-.881a3.177 3.177 0 0 0-.792.206c-.008.005-.018.005-.024.013a2.307 2.307 0 0 0-.49.288c-.026.018-.051.038-.073.056a4.15 4.15 0 0 0-.291.338c-.137.187-.249.362-.329.478-.049.07-.049.165-.1.271a1.5 1.5 0 0 0-.048.171 1.79 1.79 0 0 0-.025.187v.011a.281.281 0 0 1 .046.018c.1.025.186.049.278.065a3.524 3.524 0 0 0 .729.076c.021 0 .045.005.066.005a3.272 3.272 0 0 0 .349-.017h.008v.017a2.16 2.16 0 0 0 .55.971 2.315 2.315 0 0 0 .726.525 1.144 1.144 0 0 0 .193.07c.038.013.074.026.115.038a1.55 1.55 0 0 0-.007.183c0 .093 0 .185-.008.267l.234.028c0-.08.008-.163.011-.239a.417.417 0 0 1 .008-.1v-.157c0-.1 0-.194.007-.3v-.165c0-.1 0-.2.008-.3v-.055c0-.037.008-.073.008-.1v-.1h.291v.26c.021.025.044.047.065.074a.007.007 0 0 1 .008.007c.107.115.216.242.321.361.031.038.063.075.093.108a.061.061 0 0 1 .02.022.516.516 0 0 1 .034.042c.079.092.158.187.228.282a1.573 1.573 0 0 0 .25-.187 1.186 1.186 0 0 0 .186-.206 1.237 1.237 0 0 0 .075-.11 1.591 1.591 0 0 0 .084-.159c.014-.038.034-.074.048-.111a.209.209 0 0 0 .023-.055 2.2 2.2 0 0 1 .094-.221.594.594 0 0 1 .236-.283.512.512 0 0 0-.12-.193m-4 10.3l-.171-.183c-.039-.044-.075-.086-.111-.123 0-.01-.015-.019-.02-.028l-1.074.9 3.305 3.689.129-.109 1.952-1.65a8.163 8.163 0 0 1-1.829-.774 9.539 9.539 0 0 1-1.914-1.448.254.254 0 0 1-.038-.044c-.047-.042-.089-.083-.13-.128a1.191 1.191 0 0 1-.1-.1m-2.352 1.337l-.015.013.977.785 2.4 1.939.183-.214-2.453-2.749-.069-.073s-.018-.007-.011-.019l-.266-.3-.747.614zm-.094 1.317l.035.01 2.149.822.17.065-1.973-1.571-.091-.07zm-14.955 14.445c-.084-.362-.171-.747-.257-1.046l-.665-2.31-.933-3.243a4.777 4.777 0 0 1 4.578-6.094 5.013 5.013 0 0 1 .685.049 4.444 4.444 0 0 0 .459-.07 1.229 1.229 0 0 0 .217-.065c.055-.017.111-.037.162-.058.1-.038.2-.083.311-.133.177-.08.361-.159.537-.232a10.306 10.306 0 0 1 2.69-.78 11.077 11.077 0 0 1 3.466.055 10.429 10.429 0 0 1 1.993.562 4.892 4.892 0 0 0 .751.2c.414 0 .45-.436.962-.436a2.972 2.972 0 0 1 .694.252s-.069.1-.072.1a17.689 17.689 0 0 0-2.083 4.947.783.783 0 0 0-.025.092l-.063.257s6.807 2.743 6.825 2.756c.047-.117 1.235-2.983 1.235-2.983s1.251.872 1.9 1.258a12.857 12.857 0 0 0 .011 1.565c.113 2.031.479 5.042.591 5.977.1.117.17.231.329.231s1.922-.186 2.405-.837l-.3-4.465-.22-3.272-2.331-5.557-.362-.862-.687 1.648-2.821 6.764-6.087-2.41c0-.018.008-.034.009-.052a.016.016 0 0 1 .009-.017.294.294 0 0 1 .018-.075 17.439 17.439 0 0 1 2.216-5.167c.028-.077.047-.117.047-.124 0-.135.008-.11-.032-.141l-1.589-.6.417-1.068-.4-.323.107-.092.4-.328.615-.509.745-.623.331-.276.122-.1-.148-.205s-.241-.323-.352-.491a8.106 8.106 0 0 1-.654-1.164c-.116-.258-.217-.509-.3-.761a1.256 1.256 0 0 1-.087-.288 6.568 6.568 0 0 1-.2-.981 4.355 4.355 0 0 1-.041-.572v-.077a2.036 2.036 0 0 1 .3-1.034 1.394 1.394 0 0 1 .217-.294l.042-.037a2.245 2.245 0 0 1 .2-.2 2.107 2.107 0 0 1 .465-.291 1.68 1.68 0 0 1 .339-.151.007.007 0 0 0 .007-.007c.008-.091.009-.19.016-.312.069.007.138.019.2.031a2.985 2.985 0 0 1 .535.135.138.138 0 0 1 .039.013c-.055-.349-.465-.417-.6-.61a.207.207 0 0 1-.053-.135.247.247 0 0 1 .038-.128.376.376 0 0 0 .094-.216.2.2 0 0 0-.028-.107.2.2 0 0 0-.068-.084l-.009-.008a.536.536 0 0 0-.072-.042c-.031-.025-.062-.049-.091-.068-.041-.037-.079-.077-.116-.113a2.61 2.61 0 0 1-.692-1.273c-.009-.038-.011-.074-.021-.117s-.013-.1-.016-.15a2.459 2.459 0 0 1 .008-.488c.009-.046.015-.1.024-.147a2.4 2.4 0 0 1 .8-1.357 3.439 3.439 0 0 1 .362-.264.126.126 0 0 0 .027-.021 2.489 2.489 0 0 1 .474-.224.662.662 0 0 1 .086-.028.19.19 0 0 1 .057-.014 3.21 3.21 0 0 1 .471-.111 3.348 3.348 0 0 1 .424-.037c.093 0 .189 0 .276.007.038 0 .08.01.114.013l.093.009h.229c.083 0 .173-.006.273-.006.024.033.047.063.068.1l.024.035c.078.135.14.261.183.344.008.013.011.02.02.025a.435.435 0 0 0 .075.092c.242.224.645.288.735.488s.432.893.432.893.724.817.724.853c0 .154-.008.225.1.337a4.463 4.463 0 0 0 .432-.144 3.351 3.351 0 0 1 .038-.34c.013-.028.518-.691.784-.67.068 0 .963-.073.967-.073a4.347 4.347 0 0 0 1.56-2.5v-.024a.191.191 0 0 0 .013-.049.25.25 0 0 1 .066-.1.4.4 0 0 1 .368-.068 1.506 1.506 0 0 1 .39.15 2.987 2.987 0 0 1 .6.454c.06.059.111.111.16.169a2.587 2.587 0 0 1 .3.411.789.789 0 0 1 .141.681l-.022.031a5.155 5.155 0 0 1-2.705 2.116.53.53 0 0 0-.089.049 1.8 1.8 0 0 1 .475.774h1.183v3.4c0 .053-.008.1-.011.148s-.012.1-.024.155c-.008.031-.012.063-.022.1a1.661 1.661 0 0 1-.186.427c-.018.029-.039.053-.057.083a1.64 1.64 0 0 1-1.079.651c-.078.013-.159.018-.241.024h-1.643l2.669 3s-.795.651-1.068.908a2.963 2.963 0 0 0 .411.476c.183.108 1.314.2 1.226.742a.943.943 0 0 1-.044.184 4.037 4.037 0 0 1-.469.74c-.185.239-.571.26-.7.657a1.083 1.083 0 0 1 .42.539 15.213 15.213 0 0 0 1.708-2.43c1.371.347 4.673 2.188 5.541 2.458a13.034 13.034 0 0 0 1.88.361 2.665 2.665 0 0 0-.175.636c.008.08.27.156.572.338a2.015 2.015 0 0 1 .439.347 5.037 5.037 0 0 0 .32 2.23 6.329 6.329 0 0 1 .261.746c.026.08.044.16.066.246.042.187.079.38.111.579.037.252.063.507.075.765 0 .067.008.134.008.2v.288a1.436 1.436 0 0 1-.008.182 8.2 8.2 0 0 1-.1.948c-.015.067-.026.135-.043.208-.018.092-.038.2-.063.286a6.489 6.489 0 0 1-.335 1.017.793.793 0 0 0-.047.1c-.009.025-.018.043-.024.063a.111.111 0 0 0-.015.03c-.034-.006-.066-.021-.1-.03a3.106 3.106 0 0 1-.594-.273c-.122-.077-.242-.157-.356-.246a3.141 3.141 0 0 1-.336-.31 2.984 2.984 0 0 0 .861 1.083c.062.046.129.1.2.145a1.009 1.009 0 0 0 .154.061c.008 0 .905.288 1.086.325a22.958 22.958 0 0 1 2.879.647c.155.052.44-.3 1.3-.231a1.7 1.7 0 0 1 1.49 1.48c-.018.57-.261.708-.342 1.037-.1.421-.758 4.026-.83 4.656-.047.4-.059.972-.059.979 0 .058.159.736.173.966 0 .046.008.077.008.123a1.811 1.811 0 0 1-.026.31 1.591 1.591 0 0 1-.626 1.087c-.008.021-.012.043-.021.064-.048.175-.108.35-.168.525a6.659 6.659 0 0 1-1.484 2.359l-.018-.03-1.308-2.5-.016-.028a5.846 5.846 0 0 1 1.062-1.414 2.3 2.3 0 0 1 .171-.169c.132-.122.27-.239.408-.353 0-.038-.008-.079-.008-.115a1.767 1.767 0 0 1 .55-1.276 1.735 1.735 0 0 1 .161-.142c0-.1.2-3.875.04-5.269a3.9 3.9 0 0 1-1.48-.552c-.129-.1-4.286.3-4.413.313s-.474-.156-.716-.152-.632.056-.777.056a1.307 1.307 0 0 1-.766-.249 1.224 1.224 0 0 1-.469-.7.828.828 0 0 1-.035-.192v-.143a1.292 1.292 0 0 1 .013-.134l.024-.136a1.269 1.269 0 0 1 .136-.319 3.946 3.946 0 0 1-.667-.263 4.752 4.752 0 0 1-.581-.351 4.268 4.268 0 0 1-1.131-1.189 4.178 4.178 0 0 1-.27-.5 4.186 4.186 0 0 0 1.829 2.547c-.012.087-.021.175-.026.267a1.942 1.942 0 0 0 .045.494 2 2 0 0 0 .482.936 2.1 2.1 0 0 0 1.05.629c-.331 1.223-1.058 3.32-1.058 3.47a17.3 17.3 0 0 1-1.155 2.741 18.225 18.225 0 0 1-.4 2.712 4.053 4.053 0 0 0-.05.592c0 .157-.084 1.124-.141 2.682 0 .133-.051.154-.051.31a.7.7 0 0 0 .126.362c0 .006.013.015.018.024.054.074.111.145.164.218.072.1.144.2.213.3a6.809 6.809 0 0 1 .434.749c.065.13.125.259.181.387a.918.918 0 0 1 .081.175 7.083 7.083 0 0 1 .46 1.752h-3.072a3.867 3.867 0 0 0 .066-.54 4.126 4.126 0 0 0-.462-2.019 2.989 2.989 0 0 0-.5-.869 8 8 0 0 1 .245-1.329 8.423 8.423 0 0 1 .7-1.463s.194-3.7.194-3.856-.263-1.492-.372-2.174a7.163 7.163 0 0 0-.6-2.065c-.071-.135.331-.513.454-.74l-.076-.073a.291.291 0 0 0-.054.007c-.161.14-3.127 1.033-3.127 1.033a6.856 6.856 0 0 0-.918-1.006 36.987 36.987 0 0 1-3.89-.5 34.275 34.275 0 0 1-5.423-1.448c-.3-.11-.594-.227-.874-.337a.152.152 0 0 0-.031.046v.156a4.837 4.837 0 0 1-.044.608 6.842 6.842 0 0 1-.612 2.23 4.557 4.557 0 0 1-.515.85l-.037.074a3.558 3.558 0 0 1 .3.865 4.163 4.163 0 0 1 .088.575 5.37 5.37 0 0 1 0 .715 42.719 42.719 0 0 1 3.473 4.836.366.366 0 0 1 .023.037 1.537 1.537 0 0 1 .729 1.375 2.1 2.1 0 0 1-.069.506 1.611 1.611 0 0 1-.249.513c.045.179.082.35.111.535a5.859 5.859 0 0 1 .069 1.178v.037a5.7 5.7 0 0 1-.344 1.712 2.626 2.626 0 0 1-.162.316l-2.342-1.908-.057-.043a6.733 6.733 0 0 1 .375-.819 8.716 8.716 0 0 1 .5-.811 1.727 1.727 0 0 1-.5-1.025 1.763 1.763 0 0 1-.01-.206c0-.058.008-.125.01-.187a2.2 2.2 0 0 1 .377-1.149c-.286-.5-.973-1.483-1.19-1.758a12.273 12.273 0 0 0-1.352-1.442 4.418 4.418 0 0 0-1.049-.369c.057.007-.028-.006 0 0-.174-.019-.72-.108-.72-.108l-.824-.143-.052-.007.2-.645c0-.011.008-.024.008-.042a3.056 3.056 0 0 0 0-.721 2.1 2.1 0 0 0-.12-.495c-.021-.055-.047-.1-.069-.157a1.874 1.874 0 0 0-.107-.181.271.271 0 0 1-.034-.043c-.29-.383-.957-1.237-1.07-1.368.023-.024.045-.056.065-.077l.033-.039a9.09 9.09 0 0 0 1.122-1.783 9.441 9.441 0 0 0 .39-.958 9.078 9.078 0 0 0 .338-1.262c.042-.2.076-.4.108-.608a.143.143 0 0 1 .008-.056c.138-.092.273-.193.4-.3a5.2 5.2 0 0 0 .969-1.012 4.968 4.968 0 0 0 .458-.746l.079-.165c-.031.048-.063.1-.1.147a5.387 5.387 0 0 1-1.694 1.547l-.069.035a1.75 1.75 0 0 1-.176.1 3.787 3.787 0 0 1-.409.187c-.026.194-.062.381-.1.565-.059.274-.129.534-.208.795-.068.228-.15.452-.235.669a8.561 8.561 0 0 1-.483 1.046 8.428 8.428 0 0 1-.707 1.105c-.069.086-.129.169-.194.245a8.03 8.03 0 0 1-1.816 1.645 6.985 6.985 0 0 1-1.163.614c-.119.048-.233.1-.35.135a3.261 3.261 0 0 1-.951 1.225 2.936 2.936 0 0 0-.588.536 5.493 5.493 0 0 0-.638 1.491 23.28 23.28 0 0 0-.559 2.609c0 .147-.063.778-.063.932s.446 1.648.446 1.811a.054.054 0 0 0 .016.042 4.826 4.826 0 0 1 1.535 1.964 5.045 5.045 0 0 1 .4 1.4h-2.611a6.422 6.422 0 0 0-.317-1.227 6.221 6.221 0 0 0-1.058-1.845 3.86 3.86 0 0 0-.317-.347.523.523 0 0 1-.066-.249.1.1 0 0 1-.008-.048 5.867 5.867 0 0 1 .41-1.565 1.575 1.575 0 0 0 .166-.491c0-.153.261-3.234.243-3.347a11.956 11.956 0 0 0-1.01-2.256 4.38 4.38 0 0 1 .5-.546 2.34 2.34 0 0 0 .834-1.206c.027-.135.141-.147.141-.3a.249.249 0 0 0-.032-.147 3.4 3.4 0 0 1-2.046.674A3.149 3.149 0 0 0 537.3 61.4c-.009-.05-.018-.1-.031-.142" data-name="Caminho 66" transform="translate(-359.789 -30.39)"/>
        <path id="Caminho_67" d="M59.68 92.552V55.038h19.172v6.339H66.679V70h9.281v6.339h-9.281v9.872h12.68v6.339z" class="cls-2" data-name="Caminho 67" transform="translate(-59.68 -45.945)"/>
        <path id="Caminho_68" d="M133.039 64.593a9.5 9.5 0 0 0-2.08-3.845 4.169 4.169 0 0 0-3.043-1.2 3.67 3.67 0 0 0-2.866 1.091 4.324 4.324 0 0 0-.989 3.014 3.25 3.25 0 0 0 1.166 2.468 16.187 16.187 0 0 0 2.891 2.052q1.724.988 3.753 2.1a21.368 21.368 0 0 1 3.753 2.624 13.5 13.5 0 0 1 2.891 3.585 10.043 10.043 0 0 1 1.166 4.988 11.848 11.848 0 0 1-.781 4.43 9.266 9.266 0 0 1-2.282 3.377 10.126 10.126 0 0 1-3.677 2.156 15.028 15.028 0 0 1-4.92.753 11.532 11.532 0 0 1-7.43-2.494q-3.119-2.494-4.539-8.054l6.9-1.507a10.639 10.639 0 0 0 .888 2.884 6.766 6.766 0 0 0 1.344 1.9 4.692 4.692 0 0 0 1.6 1.039 4.569 4.569 0 0 0 1.6.312 4.492 4.492 0 0 0 3.145-7.508 14.2 14.2 0 0 0-2.891-2.364q-1.725-1.091-3.753-2.156a23.414 23.414 0 0 1-3.753-2.442 13.131 13.131 0 0 1-2.891-3.2 8.106 8.106 0 0 1-1.166-4.469 10.479 10.479 0 0 1 2.764-7.69q2.763-2.806 8.242-2.806a12.386 12.386 0 0 1 4.21.675 10.423 10.423 0 0 1 3.3 1.9 10.739 10.739 0 0 1 2.358 2.883 13.6 13.6 0 0 1 1.395 3.637z" class="cls-2" data-name="Caminho 68" transform="translate(-95.253 -45.056)"/>
        <path id="Caminho_69" d="M206.2 55.038v6.339h-8.17v31.175h-7V61.377h-8.166v-6.339z" class="cls-2" data-name="Caminho 69" transform="translate(-137.421 -45.945)"/>
        <path id="Caminho_70" d="M233.734 92.552l9.078-37.514h8.977l8.825 37.514h-6.694l-1.775-7.9h-9.687l-1.978 7.9zm9.991-14.237h6.948l-3.4-15.172h-.1z" class="cls-2" data-name="Caminho 70" transform="translate(-169.524 -45.945)"/>
        <path id="Caminho_71" d="M310.587 55.038h9.738a18.5 18.5 0 0 1 5.326.7A9.606 9.606 0 0 1 329.606 58a10.32 10.32 0 0 1 2.51 4.027 19.532 19.532 0 0 1 .989 6v11.536a19.522 19.522 0 0 1-.989 6 10.312 10.312 0 0 1-2.51 4.027 9.607 9.607 0 0 1-3.956 2.26 18.518 18.518 0 0 1-5.326.7h-9.738zm7 31.175h2.435a5.985 5.985 0 0 0 4.489-1.637q1.6-1.637 1.6-5.845v-9.872q0-4-1.395-5.742t-4.691-1.741h-2.435z" class="cls-2" data-name="Caminho 71" transform="translate(-218.026 -45.945)"/>
        <path id="Caminho_72" d="M371.354 77l9.079-37.514h8.977L398.235 77h-6.695l-1.775-7.9h-9.687L378.1 77zm22.722-46.607a16.65 16.65 0 0 1-.659 2.364 8.234 8.234 0 0 1-1.04 2 4.665 4.665 0 0 1-1.6 1.4 4.851 4.851 0 0 1-2.333.52 7.174 7.174 0 0 1-2-.286q-.989-.285-1.9-.623t-1.8-.623a5.705 5.705 0 0 0-1.75-.286 1.9 1.9 0 0 0-1.521.65 3.511 3.511 0 0 0-.761 1.533h-3.2a12.328 12.328 0 0 1 .634-2.39 7.322 7.322 0 0 1 1.141-2.026 5.351 5.351 0 0 1 1.7-1.4 5.012 5.012 0 0 1 2.358-.519 6.621 6.621 0 0 1 2 .312q.989.312 1.9.649t1.725.65a4.05 4.05 0 0 0 1.42.312 2.079 2.079 0 0 0 1.547-.65 3.184 3.184 0 0 0 .837-1.584zm-12.73 32.37h6.948l-3.4-15.172h-.1z" class="cls-2" data-name="Caminho 72" transform="translate(-256.375 -30.391)"/>
        <path id="Caminho_73" d="M444.5 66.2a17.41 17.41 0 0 1 .863-5.872 10.058 10.058 0 0 1 2.383-3.871 9.094 9.094 0 0 1 3.652-2.156 16.454 16.454 0 0 1 9.332 0 9.093 9.093 0 0 1 3.652 2.156 10.072 10.072 0 0 1 2.383 3.871 17.43 17.43 0 0 1 .862 5.872v13.409a17.417 17.417 0 0 1-.862 5.871 10.065 10.065 0 0 1-2.383 3.871 9.085 9.085 0 0 1-3.652 2.156 16.454 16.454 0 0 1-9.332 0 9.086 9.086 0 0 1-3.652-2.156 10.052 10.052 0 0 1-2.383-3.871 17.4 17.4 0 0 1-.863-5.871zm7 14.341q0 3.118 1.217 4.209a5.681 5.681 0 0 0 6.695 0q1.217-1.091 1.217-4.209V65.269q0-3.118-1.217-4.208a5.679 5.679 0 0 0-6.695 0q-1.217 1.091-1.217 4.208z" class="cls-2" data-name="Caminho 73" transform="translate(-302.534 -45.056)"/>
    </g>
</svg>
