<svg xmlns="http://www.w3.org/2000/svg" width="263" height="50" viewBox="0 0 263 50">
    <path fill="#005F93" fill-rule="evenodd" d="M219.188 34.87l-4.227-16.253-4.052 16.253h8.279zm6.702-32.852c-1.752 2.517-4.205 4.6-7.403 4.6-1.446 0-1.818-.174-5.213-1.475-.81-.304-1.884-.716-2.804-.716-1.204 0-1.774.52-3.154 1.844l-2.76-1.975C207.58.781 209.595 0 211.654 0c1.512 0 1.884.174 5.454 1.497 1.008.412 1.884.716 2.826.716 1.314 0 2.124-1.02 3.066-2.148l2.891 1.953zm-5.453 8.072l11.915 39.817h-9.353l-2.124-8.18h-11.74l-2.06 8.18H198.6l12.55-39.817h9.288zm21.706 19.333c0 8.55.876 13.367 5.52 13.367 4.709 0 5.52-4.948 5.52-13.367 0-8.354-.746-13.431-5.52-13.431-4.644 0-5.52 4.773-5.52 13.431zm20.699 0c0 7.29-1.38 20.484-15.18 20.484-13.426 0-15.179-12.477-15.179-20.484 0-7.638 1.556-20.527 15.18-20.527 13.295 0 15.179 12.238 15.179 20.527zM154.376 34.87l-4.206-16.253-4.074 16.253h8.28zm1.248-24.78l11.916 39.817h-9.331l-2.147-8.18h-11.718l-2.08 8.18h-8.477l12.55-39.817h9.287zm23.963 32.938h1.577c3.636 0 8.783-.412 8.783-13.431 0-12.238-5.082-12.65-8.783-12.65h-1.577v26.081zM170.43 10.09h9.857c6.395 0 19.384.043 19.384 19.637 0 7.464-2.322 14.147-6.856 17.424-3.68 2.756-8.213 2.756-11.411 2.756H170.43V10.09zm-31.563 0v7.464h-8.52v32.353h-9.156V17.554h-8.345V10.09h26.021zM45.801 25.322c-.022 1.237-.504 2.387-1.249 3.298l-.044.022c.263-.824.614-2.235.614-2.387V24.65c0-.782-.767-2.648-1.03-3.277l.022.022.044.043c.416.39.766.868 1.051 1.389l.044.108c.307.586.482 1.237.526 1.91l.022.39v.087zm-27.358-8.527c-.066-.022-.131-.087-.219-.196a4.805 4.805 0 0 1-.372-.672c0-.413.898-.37 1.095-.521.197-.152.285-.369.591-.5v.044l.022.282a3.4 3.4 0 0 0-.087.825c0 .39.065.933.131 1.063 0 0-.438.174-.482.217-.24-.217-.416-.434-.679-.542zm.088-3.233l3.57-3.884 2.3 1.866-.088.282a6.81 6.81 0 0 1-.284.564c-.11.195-.241.369-.373.564a6.185 6.185 0 0 1-.526.564l-.087.087a5.335 5.335 0 0 1-1.73 1.042c-.417.13-.81.216-1.183.216l-1.6-1.301zm1.73-6.423v-1.02c0-.174.044-.26.11-.325.131-.066.263-.152.372-.24l.11-.108c.262.044.503.022.744-.086.088-.022.263-.109.35-.174.132-.109.176-.26.198-.434l.35-.022v.673l-.022.087c-.043.13-.065.26-.065.39 0 .326.11.651.306.89.285.412.767.673 1.315.694.043.152.021.413 0 .586-.022.174-.22.651-.285.911-.154.478-.307.955-.285 1.454l-.526-.434.35-1.258.242-.846c-.635-.152-1.161-.521-1.424-.977-.329.087-.788.239-.92.239h-.92zm-1.314-1.324c-.153-.13-.11-.455.153-1.041.088-.109.241-.26.329-.347.219.108.306.108.372.151.066.109.11.196.175.26.044.066.176.044.22.066.109.282.284.347.35.434-.044.087-.526.347-.701.412-.175.065-.767.195-.898.065zm-.68-2.322c-.656-.39-1.204-.867-1.576-1.388.11-.044.219-.087.328-.152.22-.109.417-.282.636-.456.175-.173.328-.347.438-.52.306.78.898 1.562 1.708 2.234l-.087.217v.087a1.61 1.61 0 0 0-.022.564 5.586 5.586 0 0 1-1.424-.586zM16.495 1.78l-.022-.021s-.022-.022-.022-.066c-.022-.151.197-.499.548-.824a3.19 3.19 0 0 1 .481-.369c.198-.13.35-.174.417-.13h.043l.022.043c0 .044 0 .087-.022.13-.043.174-.24.456-.525.738-.373.37-.789.586-.92.5zm3.723 1.497l.898.066s.438.303.482.564c.022.108 0 .455 0 .542l-1.402.022c-.284-.586-.131-1.02.022-1.194zm.986 1.867c-.745.043-.7-.37-.7-.37l1.27-.021s.175.347-.57.39zm1.84-1.476c.11-.108.24-.195.394-.282.153.13.373.325.57.477l.022.022c.087.065.175.13.24.152a1.11 1.11 0 0 0 .307-.5l.022-.13c0-.173-.088-.26-.197-.303-.11-.065-.263-.109-.438-.195 0-.087-.066-.196-.132-.282.066-.196.241-.434.241-.434l.373-.217c.197-.109.372-.196.438-.26 0 .238-.022.39-.022.563v.044l-.022.304v.542h.329v-.477l.021-.304.11-1.194.131-.021.241-.044h.044l.197.022c.022.043-.131.846-.175.998l-.153.998v.022h.306l.022.022c.066-.39.132-.738.22-1.107.087-.325.174-.63.262-.933.285.043.635.109.876.217l.022.022c.197.087.373.173.526.303l.087.066c.11.108.22.238.307.347l.372.52c.044.066.044.174.11.283l.044.173.044.195v.022l-.066.022-.285.065a4.876 4.876 0 0 1-.81.087h-.066l-.372-.022-.022.022a2.228 2.228 0 0 1-.592 1.02c-.24.26-.525.455-.788.564l-.22.087-.13.021.021.196v.282l-.263.043v-.26l-.021-.109v-.651l-.022-.325V4.058h-.307V4.34l-.066.087-.372.39-.088.109-.022.021-.043.044-.241.303a3.205 3.205 0 0 1-.285-.195l-.197-.217-.088-.13-.087-.152-.044-.13-.022-.043-.11-.24a.472.472 0 0 0-.11-.173.95.95 0 0 0-.153-.13.577.577 0 0 1 .132-.217zm4.359 10.958l.197-.195.11-.13.021-.044 1.183.955-3.614 3.927-.131-.13-2.125-1.736a11.072 11.072 0 0 0 1.993-.825 11.43 11.43 0 0 0 2.08-1.54l.045-.044.131-.151.11-.087zm2.562 1.41l.022.022-1.073.824-2.607 2.062-.197-.217 2.673-2.93.065-.065.022-.021.285-.326.81.651zm.11 1.41h-.044l-2.344.869-.175.086 2.147-1.67.11-.087.306.803zM46.37 32.787c.11-.39.197-.802.285-1.128l.723-2.452 1.029-3.428c.131-.456.197-.933.197-1.41 0-2.8-2.322-5.078-5.19-5.078-.264 0-.505.022-.746.065a3.472 3.472 0 0 1-.503-.087l-.241-.065-.176-.065-.35-.13-.57-.26a11.724 11.724 0 0 0-2.935-.825 15.05 15.05 0 0 0-1.708-.109c-.723 0-1.402.066-2.08.174a11.8 11.8 0 0 0-2.17.586c-.394.13-.722.217-.81.217-.46 0-.504-.456-1.051-.456-.175 0-.526.174-.767.26l.088.11c.964 1.518 1.752 3.297 2.278 5.25l.022.109.065.26-7.447 2.93-1.336-3.169s-1.38.933-2.08 1.346c.021.369.021.954-.023 1.649-.11 2.17-.525 5.36-.635 6.357-.11.13-.197.24-.372.24-.153 0-2.08-.196-2.607-.89l.307-4.73.241-3.473 2.54-5.902.417-.91.745 1.735 3.066 7.182 6.637-2.56v-.044l-.022-.021-.022-.087a18.45 18.45 0 0 0-2.41-5.49l-.043-.13c0-.13-.022-.109.022-.152l1.73-.63-.438-1.128.438-.347-.131-.108-.416-.347-.68-.543-.81-.65-.372-.305-.132-.086.176-.239.372-.52c.285-.391.526-.804.723-1.238.131-.26.24-.542.328-.802.044-.13.088-.26.088-.304.11-.347.175-.695.219-1.042.044-.195.044-.412.044-.607v-.087c0-.39-.11-.76-.329-1.085-.066-.109-.131-.217-.24-.326l-.045-.021a1.034 1.034 0 0 0-.219-.217 1.732 1.732 0 0 0-.503-.304 1.132 1.132 0 0 0-.373-.174l-.022-.347-.219.044a5.917 5.917 0 0 0-.591.152h-.044c.066-.37.504-.434.657-.651.044-.022.066-.087.066-.13 0-.066-.022-.11-.044-.13-.044-.088-.087-.131-.087-.24l.021-.108c.022-.043.044-.065.066-.087l.088-.065.11-.065.13-.13c.373-.369.636-.846.745-1.345l.022-.13.022-.153a2.072 2.072 0 0 0 0-.52l-.044-.152c-.11-.586-.416-1.063-.876-1.454-.11-.087-.24-.195-.394-.26l-.022-.044c-.153-.065-.35-.173-.526-.217l-.087-.043-.066-.022C26.92.955 26.745.933 26.57.89a3.298 3.298 0 0 0-.46-.044l-.306.022h-.132l-.087.022-.263-.022h-.285l-.088.108-.021.044-.198.369-.021.021-.088.087c-.263.239-.701.304-.789.521l-.481.955s-.789.868-.789.911c0 .152.022.239-.11.347l-.46-.152c-.021-.065-.021-.303-.043-.369-.022-.021-.57-.716-.855-.694l-1.05-.087c-.987-.78-1.512-1.692-1.71-2.647V.24l-.021-.044-.066-.108c-.088-.087-.219-.109-.394-.065a1.323 1.323 0 0 0-.438.152 3.83 3.83 0 0 0-.657.477l-.176.174c-.11.151-.24.303-.306.434-.197.303-.241.564-.154.737l.022.022c.526.933 1.577 1.758 2.935 2.257l.11.043c-.263.26-.438.564-.526.825H17.37V8.766l.022.152.022.152.022.108c.043.152.11.304.197.456l.065.087c.263.369.701.63 1.183.694l.263.022h1.796l-2.913 3.19s.854.694 1.16.954c-.021.044-.328.456-.437.521-.22.109-1.446.217-1.358.781.022.044.022.109.066.196.065.238.372.607.503.78.197.261.614.283.767.695-.197.13-.416.39-.46.586-.46-.52-1.446-1.736-1.862-2.582-1.49.369-5.103 2.322-6.045 2.604-.789.238-2.06.39-2.06.39.067.217.22.5.198.673 0 .087-.285.173-.613.369-.154.065-.35.217-.482.369.131.911-.153 1.714-.35 2.365-.11.26-.198.52-.285.803l-.066.26-.131.608c-.044.282-.066.542-.088.824v.694c.022.348.066.695.11 1.02l.043.217.066.304c.11.39.24.738.372 1.085l.066.108.022.066v.021l.131-.021c.22-.066.438-.174.636-.282l.394-.283c.131-.086.24-.195.372-.325a3.22 3.22 0 0 1-.942 1.15l-.219.152-.175.065s-.986.325-1.183.347c-.57.13-2.059.326-3.132.694-.175.066-.482-.325-1.424-.238-.92.087-1.642.955-1.62 1.562.021.608.284.76.372 1.107.11.434.832 4.274.898 4.947.066.434.066 1.02.066 1.042 0 .043-.154.78-.176 1.02v.13c0 .108 0 .217.022.325.066.5.329.933.68 1.15l.021.065.175.564c.417 1.02.986 1.888 1.621 2.517l.022-.043 1.424-2.669.022-.022a6.02 6.02 0 0 0-1.161-1.497l-.175-.173-.46-.391.022-.109c0-.542-.241-1.02-.614-1.367l-.175-.151c0-.109-.197-4.101-.044-5.577.307-.043 1.183-.282 1.621-.608.132-.086 4.666.326 4.819.348.131 0 .504-.174.767-.174l.854.065c.306 0 .613-.108.832-.26.241-.196.438-.434.504-.738l.044-.217V30.161l-.044-.152a.852.852 0 0 0-.132-.325 9.93 9.93 0 0 0 .723-.282c.22-.109.438-.24.635-.37a4.896 4.896 0 0 0 1.227-1.28c.11-.173.22-.347.307-.52-.285 1.128-1.008 2.083-1.994 2.712l.022.282c0 .174-.022.347-.043.52a2.207 2.207 0 0 1-.526.999c-.307.304-.701.564-1.161.673.372 1.28 1.16 3.515 1.16 3.667 0 .499 1.271 2.886 1.271 2.929 0 .998.307 1.996.416 2.864.044.217.066.434.066.63 0 .173.088 1.193.153 2.842 0 .152.066.174.066.347 0 .13-.066.26-.153.369l-.022.043-.175.217-.22.326a4.89 4.89 0 0 0-.481.803l-.197.412-.088.174a6.773 6.773 0 0 0-.504 1.866h3.352a2.67 2.67 0 0 1-.066-.586c-.044-.673.131-1.432.504-2.127.197-.412.24-.629.525-.933-.044-.282-.065-.803-.263-1.41-.175-.586-.766-1.54-.766-1.562l-.22-4.08c0-.173.286-1.584.417-2.321.022-.044.153-1.28.657-2.192.066-.13-.372-.543-.504-.781l.088-.065h.066c.175.152 3.395 1.085 3.395 1.085s.722-.89 1.007-1.064c1.336-.086 2.76-.26 4.25-.52 2.19-.39 4.205-.933 5.913-1.541l.942-.347.044.043v.174c0 .217.022.434.044.63.087.889.328 1.692.679 2.386.153.325.35.63.547.89l.044.086a4.43 4.43 0 0 0-.328.912c-.044.195-.066.412-.088.607-.022.26-.022.521 0 .76-2.3 2.69-3.504 4.73-3.79 5.142l-.021.022c-.46.239-.81.803-.81 1.475 0 .196.043.37.087.543.066.195.153.39.263.542l-.11.565c-.065.39-.11.824-.087 1.258v.022c.044.65.175 1.258.394 1.822.044.13.11.24.175.348l2.541-2.04.066-.043a5.22 5.22 0 0 0-.416-.868 8.332 8.332 0 0 0-.526-.868c.219-.282.504-.586.526-1.085l.022-.217-.022-.196c-.022-.499-.176-.933-.395-1.215.307-.542 1.052-1.584 1.293-1.866.394-.52 1.117-1.237 1.467-1.54.197-.174 1.008-.347 1.14-.39l.788-.11.898-.151.065-.022-.219-.673-.022-.043a4.643 4.643 0 0 1 0-.781c.044-.174.088-.369.132-.52l.088-.153.109-.195.044-.043 1.16-1.454-.065-.087-.044-.043a11.22 11.22 0 0 1-1.226-1.888 8.303 8.303 0 0 1-.417-1.02 9.41 9.41 0 0 1-.372-1.345l-.11-.651-.021-.044-.438-.325a6.066 6.066 0 0 1-1.052-1.063c-.175-.26-.35-.521-.504-.803l-.087-.174.11.152a5.654 5.654 0 0 0 1.861 1.65l.066.042.197.087.438.217.11.586c.065.282.153.564.24.846.066.24.154.478.241.716.154.391.329.738.526 1.107.241.412.504.803.789 1.172l.197.26a8.5 8.5 0 0 0 1.993 1.758c.394.238.81.477 1.27.65l.373.13c.087.413.635.977 1.03 1.303.174.152.503.369.656.564.329.52.548 1.107.68 1.584.284.911.613 2.604.613 2.777 0 .152.065.825.065.998 0 .152-.482 1.736-.482 1.91l-.021.043a5.2 5.2 0 0 0-1.665 2.083 5.22 5.22 0 0 0-.438 1.498h2.847c.066-.434.175-.868.35-1.302.285-.76.702-1.432 1.162-1.975.11-.13.219-.26.35-.369a.46.46 0 0 0 .066-.26v-.044c0-.455-.263-1.215-.438-1.67-.066-.174-.176-.347-.176-.521 0-.152-.284-3.428-.284-3.559.065-.065.591-1.714 1.117-2.386-.197-.26-.394-.434-.548-.586-.416-.39-.7-.586-.92-1.28-.022-.152-.153-.152-.153-.326 0-.087.022-.13.044-.152a3.756 3.756 0 0 0 2.234.716 3.269 3.269 0 0 1-1.183-3.255l.022-.152zM82.226 10.09v6.857H65.974v9.2H78.59v6.856H65.974v9.808h16.252v7.096H56.818V10.09h25.408zm22.144 10.85c-.503-1.411-1.686-4.948-5.892-4.948-3.088 0-4.402 2.04-4.402 3.645 0 2.734 2.76 3.71 7.228 5.316 4.687 1.736 11.543 4.166 11.543 12.238 0 6.792-5.016 12.716-14.873 12.716-3.022 0-7.534-.543-10.907-4.188-2.344-2.56-3.089-4.99-3.593-6.748l8.039-2.127c.504 1.78 1.687 5.946 6.702 5.946 3.133 0 5.345-1.671 5.345-4.275 0-2.82-2.629-3.95-5.783-5.012-5.695-1.997-12.594-4.318-12.594-12.434 0-6.206 4.183-12.173 13.361-12.173 10.404 0 12.594 6.618 13.47 9.244l-7.644 2.8zM.833 10.783c0 .174.175 1.389.328 2.062.176.65 1.73 4.426 1.84 5.055.132.63.044.738.11 1.823.46.217 1.577.998 2.146.998.592 0 1.972-1.28 2.563-1.432 0-1.584-.416-1.736-.263-2.56.175-.977.68-1.975 1.008-2.756.328-.781.087-1.042.131-1.28 0 0 .373.455.263 1.171-.153.868-.898 2.192-.986 2.778-.11.586-.065 1.258.154 1.388 1.927-.195 3.373-.78 4.621-1.453 1.27-.673 2.322-1.215 3.395-1.65-.219-.737-1.818-3.059-2.584-3.949-.789-.89-1.774-1.844-3.023-2.56-1.248-.716-3.439-1.107-5.038-.955-1.599.152-3.154.608-3.154.608S1.337 7.247.57 7.508l.46 1.15-.986.564s.789 1.41.789 1.562z"/>
</svg>
